<svg width="16" height="14" viewBox="0 0 16 14" fill="none" xmlns="http://www.w3.org/2000/svg">
<path d="M12.6667 11.6667H3.33341C3.1566 11.6667 2.98703 11.7281 2.86201 11.8375C2.73699 11.9469 2.66675 12.0953 2.66675 12.25C2.66675 12.4047 2.73699 12.5531 2.86201 12.6625C2.98703 12.7719 3.1566 12.8333 3.33341 12.8333H12.6667C12.8436 12.8333 13.0131 12.7719 13.1382 12.6625C13.2632 12.5531 13.3334 12.4047 13.3334 12.25C13.3334 12.0953 13.2632 11.9469 13.1382 11.8375C13.0131 11.7281 12.8436 11.6667 12.6667 11.6667ZM7.52675 10.3308C7.59015 10.3839 7.66491 10.4256 7.74675 10.4533C7.82655 10.4842 7.91283 10.5001 8.00008 10.5001C8.08733 10.5001 8.17361 10.4842 8.25341 10.4533C8.33525 10.4256 8.41001 10.3839 8.47341 10.3308L11.1401 7.99751C11.2656 7.88766 11.3361 7.73868 11.3361 7.58334C11.3361 7.428 11.2656 7.27902 11.1401 7.16917C11.0145 7.05933 10.8443 6.99762 10.6667 6.99762C10.4892 6.99762 10.319 7.05933 10.1934 7.16917L8.66675 8.51084V1.75001C8.66675 1.5953 8.59651 1.44692 8.47149 1.33753C8.34646 1.22813 8.17689 1.16667 8.00008 1.16667C7.82327 1.16667 7.6537 1.22813 7.52868 1.33753C7.40365 1.44692 7.33341 1.5953 7.33341 1.75001V8.51084L5.80675 7.16917C5.74459 7.11478 5.6708 7.07164 5.58958 7.0422C5.50837 7.01277 5.42132 6.99762 5.33341 6.99762C5.24551 6.99762 5.15846 7.01277 5.07725 7.0422C4.99603 7.07164 4.92224 7.11478 4.86008 7.16917C4.79792 7.22356 4.74862 7.28813 4.71497 7.35919C4.68133 7.43026 4.66402 7.50642 4.66402 7.58334C4.66402 7.66026 4.68133 7.73642 4.71497 7.80748C4.74862 7.87855 4.79792 7.94312 4.86008 7.99751L7.52675 10.3308Z" fill="#3D3D3D"/>
</svg>
