<svg width="28" height="30" viewBox="0 0 28 30" fill="none" xmlns="http://www.w3.org/2000/svg">
<g filter="url(#filter0_d_229_86)">
<path d="M22.4701 2H5.53006C5.33964 1.99736 5.15056 2.03225 4.97362 2.10269C4.79669 2.17312 4.63536 2.27772 4.49886 2.41051C4.36235 2.54331 4.25334 2.70169 4.17805 2.87661C4.10276 3.05154 4.06267 3.23958 4.06006 3.43V20.57C4.06267 20.7604 4.10276 20.9485 4.17805 21.1234C4.25334 21.2983 4.36235 21.4567 4.49886 21.5895C4.63536 21.7223 4.79669 21.8269 4.97362 21.8973C5.15056 21.9678 5.33964 22.0026 5.53006 22H22.4701C22.6605 22.0026 22.8496 21.9678 23.0265 21.8973C23.2034 21.8269 23.3648 21.7223 23.5013 21.5895C23.6378 21.4567 23.7468 21.2983 23.8221 21.1234C23.8974 20.9485 23.9375 20.7604 23.9401 20.57V3.43C23.9375 3.23958 23.8974 3.05154 23.8221 2.87661C23.7468 2.70169 23.6378 2.54331 23.5013 2.41051C23.3648 2.27772 23.2034 2.17312 23.0265 2.10269C22.8496 2.03225 22.6605 1.99736 22.4701 2ZM10.0901 18.74H7.09006V9.74H10.0901V18.74ZM8.59006 8.48C8.17632 8.48 7.77953 8.31565 7.48697 8.02309C7.19442 7.73053 7.03006 7.33374 7.03006 6.92C7.03006 6.50626 7.19442 6.10947 7.48697 5.81692C7.77953 5.52436 8.17632 5.36 8.59006 5.36C8.80975 5.33509 9.03224 5.35686 9.24293 5.42389C9.45363 5.49092 9.6478 5.60169 9.81272 5.74896C9.97763 5.89624 10.1096 6.07668 10.1999 6.27848C10.2903 6.48029 10.337 6.6989 10.337 6.92C10.337 7.14111 10.2903 7.35972 10.1999 7.56152C10.1096 7.76332 9.97763 7.94377 9.81272 8.09104C9.6478 8.23831 9.45363 8.34909 9.24293 8.41612C9.03224 8.48315 8.80975 8.50492 8.59006 8.48ZM20.9101 18.74H17.9101V13.91C17.9101 12.7 17.4801 11.91 16.3901 11.91C16.0527 11.9125 15.7242 12.0183 15.4489 12.2132C15.1735 12.4081 14.9645 12.6827 14.8501 13C14.7718 13.235 14.7379 13.4826 14.7501 13.73V18.73H11.7501C11.7501 18.73 11.7501 10.55 11.7501 9.73H14.7501V11C15.0226 10.5271 15.419 10.1375 15.8965 9.8732C16.374 9.60889 16.9146 9.47985 17.4601 9.5C19.4601 9.5 20.9101 10.79 20.9101 13.56V18.74Z" fill="#A3ABB2"/>
</g>
<defs>
<filter id="filter0_d_229_86" x="-2" y="0" width="32" height="32" filterUnits="userSpaceOnUse" color-interpolation-filters="sRGB">
<feFlood flood-opacity="0" result="BackgroundImageFix"/>
<feColorMatrix in="SourceAlpha" type="matrix" values="0 0 0 0 0 0 0 0 0 0 0 0 0 0 0 0 0 0 127 0" result="hardAlpha"/>
<feOffset dy="4"/>
<feGaussianBlur stdDeviation="2"/>
<feComposite in2="hardAlpha" operator="out"/>
<feColorMatrix type="matrix" values="0 0 0 0 0 0 0 0 0 0 0 0 0 0 0 0 0 0 0.25 0"/>
<feBlend mode="normal" in2="BackgroundImageFix" result="effect1_dropShadow_229_86"/>
<feBlend mode="normal" in="SourceGraphic" in2="effect1_dropShadow_229_86" result="shape"/>
</filter>
</defs>
</svg>
